<svg width="40" height="41" viewBox="0 0 40 41" fill="none" xmlns="http://www.w3.org/2000/svg">
<path opacity="0.2" d="M35 20.5C35 23.4667 34.1203 26.3668 32.4721 28.8336C30.8238 31.3003 28.4812 33.2229 25.7403 34.3582C22.9994 35.4935 19.9834 35.7906 17.0737 35.2118C14.1639 34.633 11.4912 33.2044 9.39341 31.1066C7.29562 29.0088 5.86701 26.3361 5.28823 23.4264C4.70945 20.5166 5.0065 17.5006 6.14181 14.7597C7.27713 12.0189 9.19972 9.67618 11.6665 8.02796C14.1332 6.37973 17.0333 5.5 20 5.5C23.9783 5.5 27.7936 7.08035 30.6066 9.8934C33.4197 12.7064 35 16.5218 35 20.5Z" fill="#1BBC9B"/>
<path d="M27.1344 15.8656C27.2506 15.9817 27.3428 16.1196 27.4057 16.2713C27.4686 16.4231 27.501 16.5857 27.501 16.75C27.501 16.9143 27.4686 17.0769 27.4057 17.2287C27.3428 17.3804 27.2506 17.5183 27.1344 17.6344L18.3844 26.3844C18.2683 26.5006 18.1304 26.5928 17.9787 26.6557C17.8269 26.7186 17.6643 26.751 17.5 26.751C17.3357 26.751 17.1731 26.7186 17.0213 26.6557C16.8696 26.5928 16.7317 26.5006 16.6156 26.3844L12.8656 22.6344C12.6311 22.3998 12.4993 22.0817 12.4993 21.75C12.4993 21.4183 12.6311 21.1002 12.8656 20.8656C13.1002 20.6311 13.4183 20.4993 13.75 20.4993C14.0817 20.4993 14.3998 20.6311 14.6344 20.8656L17.5 23.7328L25.3656 15.8656C25.4817 15.7494 25.6196 15.6572 25.7713 15.5943C25.9231 15.5314 26.0857 15.499 26.25 15.499C26.4143 15.499 26.5769 15.5314 26.7287 15.5943C26.8804 15.6572 27.0183 15.7494 27.1344 15.8656ZM36.25 20.5C36.25 23.7139 35.297 26.8557 33.5114 29.528C31.7258 32.2003 29.1879 34.2831 26.2186 35.513C23.2493 36.743 19.982 37.0648 16.8298 36.4378C13.6776 35.8108 10.7821 34.2631 8.50952 31.9905C6.23692 29.7179 4.68926 26.8224 4.06225 23.6702C3.43524 20.518 3.75704 17.2507 4.98696 14.2814C6.21689 11.3121 8.29969 8.77419 10.972 6.98862C13.6443 5.20305 16.7861 4.25 20 4.25C24.3084 4.25455 28.439 5.96806 31.4855 9.01454C34.5319 12.061 36.2455 16.1916 36.25 20.5ZM33.75 20.5C33.75 17.7805 32.9436 15.1221 31.4327 12.8609C29.9218 10.5997 27.7744 8.83736 25.2619 7.79666C22.7494 6.75595 19.9848 6.48366 17.3175 7.0142C14.6503 7.54475 12.2003 8.85431 10.2773 10.7773C8.35432 12.7003 7.04476 15.1503 6.51421 17.8175C5.98366 20.4847 6.25596 23.2494 7.29666 25.7619C8.33737 28.2744 10.0997 30.4218 12.3609 31.9327C14.6221 33.4436 17.2805 34.25 20 34.25C23.6455 34.2459 27.1404 32.7959 29.7182 30.2182C32.2959 27.6404 33.7459 24.1455 33.75 20.5Z" fill="#1BBC9B"/>
</svg>
