<svg width="20" height="21" viewBox="0 0 20 21" fill="none" xmlns="http://www.w3.org/2000/svg">
<path d="M10 2.7373C8.39303 2.7373 6.82214 3.21383 5.486 4.10661C4.14985 4.9994 3.10844 6.26835 2.49348 7.753C1.87852 9.23765 1.71762 10.8713 2.03112 12.4474C2.34463 14.0235 3.11846 15.4712 4.25476 16.6075C5.39106 17.7438 6.8388 18.5177 8.4149 18.8312C9.99099 19.1447 11.6247 18.9838 13.1093 18.3688C14.594 17.7539 15.8629 16.7125 16.7557 15.3763C17.6485 14.0402 18.125 12.4693 18.125 10.8623C18.1227 8.70812 17.266 6.64281 15.7427 5.11957C14.2195 3.59633 12.1542 2.73958 10 2.7373ZM13.5672 9.42949L9.19219 13.8045C9.13415 13.8626 9.06522 13.9087 8.98934 13.9402C8.91347 13.9716 8.83214 13.9878 8.75 13.9878C8.66787 13.9878 8.58654 13.9716 8.51067 13.9402C8.43479 13.9087 8.36586 13.8626 8.30782 13.8045L6.43282 11.9295C6.31554 11.8122 6.24966 11.6532 6.24966 11.4873C6.24966 11.3215 6.31554 11.1624 6.43282 11.0451C6.55009 10.9278 6.70915 10.862 6.875 10.862C7.04086 10.862 7.19992 10.9278 7.31719 11.0451L8.75 12.4787L12.6828 8.54512C12.7409 8.48705 12.8098 8.44099 12.8857 8.40956C12.9616 8.37813 13.0429 8.36196 13.125 8.36196C13.2071 8.36196 13.2884 8.37813 13.3643 8.40956C13.4402 8.44099 13.5091 8.48705 13.5672 8.54512C13.6253 8.60319 13.6713 8.67212 13.7027 8.74799C13.7342 8.82386 13.7504 8.90518 13.7504 8.9873C13.7504 9.06943 13.7342 9.15074 13.7027 9.22661C13.6713 9.30249 13.6253 9.37142 13.5672 9.42949Z" fill="#D96704"/>
</svg>
