<svg width="48" height="48" viewBox="0 0 48 48" fill="none" xmlns="http://www.w3.org/2000/svg">
<path d="M24 4.5C20.1433 4.5 16.3731 5.64365 13.1664 7.78634C9.95963 9.92903 7.46027 12.9745 5.98436 16.5377C4.50845 20.1008 4.12228 24.0216 4.8747 27.8043C5.62711 31.5869 7.4843 35.0615 10.2114 37.7886C12.9385 40.5157 16.4131 42.3729 20.1957 43.1253C23.9784 43.8777 27.8992 43.4915 31.4623 42.0156C35.0255 40.5397 38.071 38.0404 40.2137 34.8336C42.3563 31.6269 43.5 27.8567 43.5 24C43.4945 18.83 41.4383 13.8732 37.7826 10.2174C34.1268 6.56167 29.1701 4.50546 24 4.5ZM24 40.5C20.7366 40.5 17.5465 39.5323 14.8331 37.7192C12.1197 35.9062 10.0048 33.3293 8.756 30.3143C7.50715 27.2993 7.18039 23.9817 7.81705 20.781C8.45371 17.5803 10.0252 14.6403 12.3327 12.3327C14.6403 10.0252 17.5803 8.4537 20.781 7.81704C23.9817 7.18039 27.2993 7.50714 30.3143 8.75599C33.3293 10.0048 35.9062 12.1197 37.7193 14.8331C39.5323 17.5465 40.5 20.7366 40.5 24C40.495 28.3745 38.7551 32.5685 35.6618 35.6618C32.5685 38.755 28.3746 40.495 24 40.5ZM30.8325 22.7512L21.8325 16.7512C21.6066 16.6005 21.3439 16.5139 21.0726 16.5008C20.8013 16.4876 20.5315 16.5484 20.292 16.6766C20.0526 16.8048 19.8524 16.9956 19.7129 17.2287C19.5734 17.4618 19.4998 17.7284 19.5 18V30C19.4998 30.2716 19.5734 30.5382 19.7129 30.7713C19.8524 31.0043 20.0526 31.1952 20.292 31.3234C20.5315 31.4516 20.8013 31.5124 21.0726 31.4992C21.3439 31.4861 21.6066 31.3995 21.8325 31.2487L30.8325 25.2487C31.0383 25.1118 31.207 24.9262 31.3237 24.7083C31.4404 24.4905 31.5015 24.2471 31.5015 24C31.5015 23.7528 31.4404 23.5095 31.3237 23.2917C31.207 23.0738 31.0383 22.8882 30.8325 22.7512ZM22.5 27.1969V20.8125L27.2963 24L22.5 27.1969Z" fill="white"/>
</svg>
