<svg width="40" height="41" viewBox="0 0 40 41" fill="none" xmlns="http://www.w3.org/2000/svg">
<path d="M18.1367 11.6812V25.4312C18.1346 27.4197 17.3438 29.3262 15.9377 30.7323C14.5317 32.1383 12.6252 32.9292 10.6367 32.9312C10.3052 32.9312 9.98726 32.7995 9.75283 32.5651C9.51841 32.3307 9.38672 32.0128 9.38672 31.6812C9.38672 31.3497 9.51841 31.0318 9.75283 30.7974C9.98726 30.5629 10.3052 30.4312 10.6367 30.4312C11.9628 30.4312 13.2346 29.9045 14.1723 28.9668C15.1099 28.0291 15.6367 26.7573 15.6367 25.4312V24.1812H6.26172C5.59868 24.1812 4.96279 23.9178 4.49395 23.449C4.02511 22.9802 3.76172 22.3443 3.76172 21.6812V11.6812C3.76172 11.0182 4.02511 10.3823 4.49395 9.91348C4.96279 9.44464 5.59868 9.18124 6.26172 9.18124H15.6367C16.2998 9.18124 16.9356 9.44464 17.4045 9.91348C17.8733 10.3823 18.1367 11.0182 18.1367 11.6812ZM33.7617 9.18124H24.3867C23.7237 9.18124 23.0878 9.44464 22.6189 9.91348C22.1501 10.3823 21.8867 11.0182 21.8867 11.6812V21.6812C21.8867 22.3443 22.1501 22.9802 22.6189 23.449C23.0878 23.9178 23.7237 24.1812 24.3867 24.1812H33.7617V25.4312C33.7617 26.7573 33.2349 28.0291 32.2972 28.9668C31.3596 29.9045 30.0878 30.4312 28.7617 30.4312C28.4302 30.4312 28.1123 30.5629 27.8778 30.7974C27.6434 31.0318 27.5117 31.3497 27.5117 31.6812C27.5117 32.0128 27.6434 32.3307 27.8778 32.5651C28.1123 32.7995 28.4302 32.9312 28.7617 32.9312C30.7502 32.9292 32.6567 32.1383 34.0627 30.7323C35.4688 29.3262 36.2596 27.4197 36.2617 25.4312V11.6812C36.2617 11.0182 35.9983 10.3823 35.5295 9.91348C35.0606 9.44464 34.4248 9.18124 33.7617 9.18124Z" fill="#D96704"/>
</svg>
